<?xml version="1.0" standalone="no"?>
<!DOCTYPE svg PUBLIC "-//W3C//DTD SVG 20010904//EN"
 "http://www.w3.org/TR/2001/REC-SVG-20010904/DTD/svg10.dtd">
<svg version="1.0" xmlns="http://www.w3.org/2000/svg"
 width="210.000000pt" height="210.000000pt" viewBox="0 0 210.000000 210.000000"
 preserveAspectRatio="xMidYMid meet">

<g transform="translate(0.000000,210.000000) scale(0.100000,-0.100000)"
fill="#000000" stroke="none">
<path d="M0 1050 l0 -1050 1050 0 1050 0 0 1050 0 1050 -1050 0 -1050 0 0
-1050z m854 553 l17 -38 179 0 179 0 17 38 c17 37 19 38 58 32 23 -4 91 -23
151 -42 134 -43 151 -59 228 -210 103 -203 140 -354 141 -575 1 -168 11 -148
-106 -219 -67 -41 -224 -112 -271 -124 -21 -6 -29 1 -66 59 -22 36 -41 68 -41
71 0 3 27 17 60 32 33 14 60 29 60 34 0 19 -22 17 -85 -6 -108 -41 -200 -57
-325 -57 -125 0 -217 16 -325 57 -63 23 -85 25 -85 6 0 -5 27 -20 60 -34 33
-15 60 -29 60 -32 0 -3 -19 -35 -41 -71 -37 -58 -45 -65 -66 -59 -48 12 -205
84 -271 124 -117 72 -107 52 -106 219 1 249 52 426 192 669 29 51 44 65 81 81
85 36 228 78 272 81 9 1 23 -15 33 -36z"/>
<path d="M724 1122 c-61 -39 -84 -145 -44 -210 61 -99 185 -91 232 15 27 62
18 122 -26 170 -27 30 -41 36 -82 40 -37 3 -57 -1 -80 -15z"/>
<path d="M1254 1130 c-35 -14 -72 -67 -79 -114 -9 -55 20 -126 61 -153 43 -28
116 -24 149 7 56 53 71 128 38 197 -28 61 -105 89 -169 63z"/>
</g>
</svg>
