<?xml version="1.0" standalone="no"?>
<!DOCTYPE svg PUBLIC "-//W3C//DTD SVG 20010904//EN"
 "http://www.w3.org/TR/2001/REC-SVG-20010904/DTD/svg10.dtd">
<svg version="1.0" xmlns="http://www.w3.org/2000/svg"
 width="225.000000pt" height="225.000000pt" viewBox="0 0 225.000000 225.000000"
 preserveAspectRatio="xMidYMid meet">

<g transform="translate(0.000000,225.000000) scale(0.100000,-0.100000)"
fill="#000000" stroke="none">
<path d="M1632 1568 c-2 -65 -1 -68 21 -67 16 1 17 3 5 6 -13 3 -18 18 -21 66
l-3 62 -2 -67z"/>
<path d="M976 1585 c-9 -26 -7 -32 5 -12 6 10 9 21 6 23 -2 3 -7 -2 -11 -11z"/>
<path d="M940 1490 c0 -11 5 -20 10 -20 6 0 10 9 10 20 0 11 -4 20 -10 20 -5
0 -10 -9 -10 -20z"/>
<path d="M1403 1493 c-9 -3 -6 -11 7 -25 17 -18 23 -20 52 -10 l33 11 -31 -5
c-21 -3 -35 0 -45 12 -12 15 -12 16 8 10 12 -4 24 -3 27 2 6 10 -29 13 -51 5z"/>
<path d="M1677 1463 c6 -16 573 -19 573 -3 0 6 -111 10 -289 12 -228 2 -287 0
-284 -9z"/>
<path d="M0 1460 c0 -7 150 -10 440 -10 384 0 440 -2 440 -15 0 -13 -56 -15
-440 -15 l-440 0 0 -710 0 -710 475 0 475 0 0 394 c0 320 -3 395 -13 399 -8 3
-72 5 -143 5 l-129 -1 -3 166 -2 167 145 0 145 0 -1 163 c0 100 -4 154 -9 142
-5 -11 -9 -15 -9 -9 -1 6 -7 11 -15 11 -10 0 -13 -10 -10 -36 3 -26 0 -22 -9
14 l-12 50 -443 3 c-293 1 -442 -1 -442 -8z m927 -82 c-3 -8 -6 -5 -6 6 -1 11
2 17 5 13 3 -3 4 -12 1 -19z"/>
<path d="M1343 1444 c-28 -26 -28 -27 -31 -170 l-4 -144 156 0 c86 0 156 -4
156 -8 0 -20 -52 -317 -57 -325 -3 -4 -60 -7 -127 -6 l-121 2 -6 -29 c-4 -16
-7 -194 -8 -396 l-1 -368 475 0 475 0 0 710 0 710 -444 0 c-264 0 -447 4 -451
9 -3 5 5 17 17 25 12 9 17 16 11 16 -7 0 -25 -12 -40 -26z m3 -41 c-10 -10
-19 5 -10 18 6 11 8 11 12 0 2 -7 1 -15 -2 -18z"/>
</g>
</svg>
